<?xml version="1.0"?><svg width="640" height="480" xmlns="http://www.w3.org/2000/svg">
 <title>sheep - red on red on black eyes to right</title>
 <g>
  <path d="m448.073517,282.072479c0.019745,66.308411 -53.728302,120.07251 -120.036774,120.07251c-66.308441,0 -120.056488,-53.764099 -120.036728,-120.07251c-0.01976,-66.308411 53.728287,-120.072479 120.036728,-120.072479c66.308472,0 120.056519,53.764069 120.036774,120.072479z" id="path2383" stroke-miterlimit="4" stroke-linejoin="round" stroke-linecap="round" stroke-width="4" stroke="#000000" fill-rule="nonzero" fill="#fc0202"/>
  <path d="m328.1875,222.963715c-55.318298,1.121063 -79.1875,37.343903 -79.1875,81.8125c0,19.851105 10.824524,38.074738 25.15625,52.25c-30.524185,-12.934357 -54.598328,-38.139191 -66.03125,-69.40625c2.907867,63.682709 55.509399,114.5 119.90625,114.5c66.260284,0 120.03125,-53.771027 120.03125,-120.03125c0,-14.467712 -2.552216,-28.339966 -7.25,-41.1875c0.084167,1.842804 0.15625,3.699036 0.15625,5.5625c0,32.537354 -12.987488,62.061615 -34.03125,83.6875c3.605835,-7.987946 5.75,-16.521271 5.75,-25.375c0,-45.174469 -24.621155,-81.8125 -81.84375,-81.8125c-0.893951,0 -1.778168,-0.017792 -2.65625,0z" id="path3221" stroke-miterlimit="4" stroke-linejoin="round" stroke-linecap="round" stroke-width="4" fill-rule="nonzero" fill-opacity="0.313725" fill="#000000"/>
  <path d="m336.217041,402.64212c0,9.090759 14.665344,9.381348 32.735107,9.381348c18.069763,0 32.735107,0.693481 32.735107,-9.381348c0,-17.715942 -14.665344,-32.094116 -32.735107,-32.094116c-18.069763,0 -32.735107,14.378174 -32.735107,32.094116z" id="path3172" stroke-miterlimit="4" stroke-linejoin="round" stroke-linecap="round" stroke-width="4" stroke="#000000" fill-rule="nonzero" fill="#333333"/>
  <path d="m321.219238,402.64212c0,9.090759 -14.665344,9.381348 -32.735107,9.381348c-18.069824,0 -32.735168,0.693481 -32.735168,-9.381348c0,-17.715942 14.665344,-32.094116 32.735168,-32.094116c18.069763,0 32.735107,14.378174 32.735107,32.094116z" id="path3329" stroke-miterlimit="4" stroke-linejoin="round" stroke-linecap="round" stroke-width="4" stroke="#000000" fill-rule="nonzero" fill="#333333"/>
  <path d="m275.893707,411.422516c0,-16.367554 9.44278,-26.439941 9.44278,-26.439941c0,0 -3.7771,13.849487 -3.147583,26.439941l-6.295197,0z" id="path3331" stroke-miterlimit="4" stroke-linejoin="round" stroke-width="4" stroke="#000000" fill-rule="evenodd" fill-opacity="0.313725" fill="#000000"/>
  <path d="m325.374969,209.776215c-30.129242,0.610596 -50.931671,11.653259 -63.624969,28.75c-24.064438,-2.587799 -44.0625,23.625 -44.0625,23.625c0,0 18.891129,9.44635 32.062485,1.53125c-2.399231,8.711731 -3.5625,18.105957 -3.5625,27.90625c0,45.1745 56.125504,81.84375 81.843765,81.84375c26.716614,0 81.84375,-36.66925 81.84375,-81.84375c0,-9.800293 -1.163879,-19.194519 -3.562531,-27.90625c13.171417,7.9151 32.03125,-1.53125 32.03125,-1.53125c0,0 -19.971222,-26.204559 -44.03125,-23.625c-13.061615,-17.595001 -34.707642,-28.75 -66.281219,-28.75c-0.893982,0 -1.778198,-0.017792 -2.656281,0z" id="path3155" stroke-miterlimit="4" stroke-linejoin="round" stroke-linecap="round" stroke-width="4" stroke="#000000" fill-rule="nonzero" fill="#333333"/>
  <path d="m381.542572,411.422516c0,-16.367554 -9.44281,-26.439941 -9.44281,-26.439941c0,0 3.77713,13.849487 3.147614,26.439941l6.295197,0z" id="path3174" stroke-miterlimit="4" stroke-linejoin="round" stroke-width="4" stroke="#000000" fill-rule="evenodd" fill-opacity="0.313725" fill="#000000"/>
  <path d="m324.407227,279.602203c0.003693,12.518921 -10.14386,22.669495 -22.66275,22.669495c-12.518982,0 -22.666534,-10.150574 -22.662781,-22.669495c-0.003754,-12.518982 10.143799,-22.669556 22.662781,-22.669556c12.51889,0 22.666443,10.150574 22.66275,22.669556z" id="path3157" stroke-miterlimit="4" stroke-linejoin="round" stroke-linecap="round" stroke-width="4" stroke="#000000" fill-rule="nonzero" fill="#ffffff"/>
  <path d="m377.139435,279.602203c0.003693,12.518921 -10.143829,22.669495 -22.662811,22.669495c-12.518921,0 -22.666504,-10.150574 -22.66275,-22.669495c-0.003754,-12.518982 10.143829,-22.669556 22.66275,-22.669556c12.518982,0 22.666504,10.150574 22.662811,22.669556z" id="path3159" stroke-miterlimit="4" stroke-linejoin="round" stroke-linecap="round" stroke-width="4" stroke="#000000" fill-rule="nonzero" fill="#ffffff"/>
  <path d="m369.994751,283.602203c0.001251,4.172974 -3.381287,7.556519 -7.55426,7.556519c-4.172974,0 -7.555542,-3.383545 -7.554291,-7.556519c-0.001251,-4.172974 3.381317,-7.556519 7.554291,-7.556519c4.172974,0 7.555511,3.383545 7.55426,7.556519z" id="path3161" stroke-miterlimit="4" stroke-linejoin="round" stroke-linecap="round" stroke-width="47.666691" fill-rule="nonzero" fill="#000000"/>
  <path d="m318.964417,283.602203c0.001251,4.172974 -3.381287,7.556519 -7.554291,7.556519c-4.172943,0 -7.555511,-3.383545 -7.55423,-7.556519c-0.001282,-4.172974 3.381287,-7.556519 7.55423,-7.556519c4.173004,0 7.555542,3.383545 7.554291,7.556519z" id="path3163" stroke-miterlimit="4" stroke-linejoin="round" stroke-linecap="round" stroke-width="47.666691" fill-rule="nonzero" fill="#000000"/>
  <path d="m406.59375,264.776215l-1.875,2.65625c0.248901,3.0755 0.34375,6.202637 0.34375,9.375c0,45.1745 -55.127136,81.84375 -81.84375,81.84375c-20.705811,0 -61.096741,-23.755676 -76.062515,-56.59375c7.615814,40.246277 57.17189,71.375 80.875015,71.375c26.716614,0 81.84375,-36.669312 81.84375,-81.84375c0,-9.391541 -1.075378,-18.410278 -3.28125,-26.8125z" id="path3231" stroke-miterlimit="4" stroke-linejoin="round" stroke-linecap="round" stroke-width="4" fill-rule="nonzero" fill-opacity="0.313725" fill="#000000"/>
  <path d="m344.632202,344.233551c-2.292725,3.973083 -6.500244,5.838562 -9.39679,4.16626c-2.896545,-1.672302 -3.384705,-6.248901 -1.090271,-10.221008c2.292725,-3.973083 6.500275,-5.838562 9.39679,-4.16626c2.896545,1.672302 3.384705,6.248901 1.090271,10.221008z" id="path2398" stroke-miterlimit="4" stroke-linejoin="round" stroke-linecap="round" stroke-width="47.666691" fill-rule="nonzero" fill="#000000"/>
  <path d="m311.895142,344.233551c2.292694,3.973083 6.500275,5.838562 9.39679,4.16626c2.896545,-1.672302 3.384705,-6.248901 1.090271,-10.221008c-2.292725,-3.973083 -6.500244,-5.838562 -9.39679,-4.16626c-2.896545,1.672302 -3.384705,6.248901 -1.090271,10.221008z" id="path2412" stroke-miterlimit="4" stroke-linejoin="round" stroke-linecap="round" stroke-width="47.666691" fill-rule="nonzero" fill="#000000"/>
  <title>Layer 1</title>
 </g>
</svg>